<?xml version="1.0" encoding="utf-8"?>
<!-- Generator: Adobe Illustrator 23.1.0, SVG Export Plug-In . SVG Version: 6.00 Build 0)  -->
<svg version="1.1" id="Layer_1" xmlns="http://www.w3.org/2000/svg" xmlns:xlink="http://www.w3.org/1999/xlink" x="0px" y="0px"
	 viewBox="0 0 100 100" style="enable-background:new 0 0 100 100;" xml:space="preserve">
<g>
	<path d="M88.5,6.22h-77c-4.25,0-7.7,3.46-7.7,7.7v50.05c0,4.25,3.45,7.7,7.7,7.7h30.8v-7.7H11.5V13.92h77v50.05H76.95v7.7H88.5
		c4.25,0,7.7-3.46,7.7-7.7V13.92C96.2,9.68,92.75,6.22,88.5,6.22z"/>
	<path d="M46.15,94.78H73.1V52.42H46.15V94.78z M63.48,62.05c1.06,0,1.92,0.86,1.92,1.92c0,1.06-0.87,1.92-1.92,1.92
		c-1.06,0-1.92-0.87-1.92-1.92C61.55,62.91,62.41,62.05,63.48,62.05z M63.48,69.75c1.06,0,1.92,0.86,1.92,1.93
		c0,1.06-0.87,1.92-1.92,1.92c-1.06,0-1.92-0.87-1.92-1.92C61.55,70.61,62.41,69.75,63.48,69.75z M63.48,77.45
		c1.06,0,1.92,0.86,1.92,1.92c0,1.06-0.87,1.92-1.92,1.92c-1.06,0-1.92-0.87-1.92-1.92C61.55,78.31,62.41,77.45,63.48,77.45z
		 M55.78,62.05c1.06,0,1.92,0.86,1.92,1.92c0,1.06-0.87,1.92-1.92,1.92c-1.06,0-1.93-0.87-1.93-1.92
		C53.85,62.91,54.71,62.05,55.78,62.05z M55.78,69.75c1.06,0,1.92,0.86,1.92,1.93c0,1.06-0.87,1.92-1.92,1.92
		c-1.06,0-1.93-0.87-1.93-1.92C53.85,70.61,54.71,69.75,55.78,69.75z M55.78,77.45c1.06,0,1.92,0.86,1.92,1.92
		c0,1.06-0.87,1.92-1.92,1.92c-1.06,0-1.93-0.87-1.93-1.92C53.85,78.31,54.71,77.45,55.78,77.45z"/>
	<path d="M73.69,31.39c-8.27-5.08-18.67-5.3-27.15-0.59c-0.93,0.52-1.26,1.69-0.75,2.62c0.52,0.92,1.68,1.26,2.62,0.74
		c7.26-4.04,16.18-3.85,23.27,0.5c0.31,0.19,0.66,0.28,1,0.28c0.65,0,1.28-0.33,1.64-0.92C74.88,33.13,74.6,31.95,73.69,31.39z"/>
	<path d="M68.67,41.51c0.65,0,1.28-0.32,1.64-0.92c0.56-0.91,0.27-2.09-0.63-2.65c-5.91-3.62-13.34-3.79-19.4-0.42
		c-0.93,0.51-1.26,1.69-0.75,2.61c0.52,0.93,1.69,1.26,2.62,0.75c4.85-2.69,10.79-2.56,15.52,0.33
		C67.98,41.42,68.33,41.51,68.67,41.51z"/>
	<path d="M54.03,44.29c-0.93,0.52-1.26,1.69-0.75,2.62c0.51,0.93,1.69,1.26,2.62,0.75c2.42-1.35,5.38-1.29,7.73,0.15
		c0.32,0.19,0.66,0.28,1,0.28c0.65,0,1.28-0.32,1.64-0.92c0.56-0.9,0.27-2.09-0.64-2.65C62.12,42.36,57.67,42.27,54.03,44.29z"/>
</g>
</svg>
