
<svg version="1.1" id="Layer_1" xmlns="http://www.w3.org/2000/svg" xmlns:xlink="http://www.w3.org/1999/xlink" x="0px" y="0px"
	 width="100px" height="100px" viewBox="0 0 100 100" enable-background="new 0 0 100 100" xml:space="preserve">
<g>
	<path d="M88.501,6.224H11.499c-4.249,0-7.7,3.458-7.7,7.7v50.052c0,4.245,3.452,7.7,7.7,7.7H42.3v-7.7H11.499V13.924h77.002v50.052
		h-11.55v7.7h11.55c4.245,0,7.7-3.455,7.7-7.7V13.924C96.201,9.681,92.746,6.224,88.501,6.224z"/>
	<path d="M46.15,94.776h26.951V52.425H46.15V94.776z M63.476,62.051c1.06,0,1.925,0.86,1.925,1.925c0,1.06-0.865,1.925-1.925,1.925
		c-1.064,0-1.925-0.865-1.925-1.925C61.551,62.911,62.411,62.051,63.476,62.051z M63.476,69.75c1.06,0,1.925,0.861,1.925,1.926
		c0,1.06-0.865,1.925-1.925,1.925c-1.064,0-1.925-0.865-1.925-1.925C61.551,70.611,62.411,69.75,63.476,69.75z M63.476,77.451
		c1.06,0,1.925,0.86,1.925,1.925c0,1.06-0.865,1.925-1.925,1.925c-1.064,0-1.925-0.865-1.925-1.925
		C61.551,78.312,62.411,77.451,63.476,77.451z M55.775,62.051c1.06,0,1.925,0.86,1.925,1.925c0,1.06-0.865,1.925-1.925,1.925
		c-1.064,0-1.926-0.865-1.926-1.925C53.85,62.911,54.711,62.051,55.775,62.051z M55.775,69.75c1.06,0,1.925,0.861,1.925,1.926
		c0,1.06-0.865,1.925-1.925,1.925c-1.064,0-1.926-0.865-1.926-1.925C53.85,70.611,54.711,69.75,55.775,69.75z M55.775,77.451
		c1.06,0,1.925,0.86,1.925,1.925c0,1.06-0.865,1.925-1.925,1.925c-1.064,0-1.926-0.865-1.926-1.925
		C53.85,78.312,54.711,77.451,55.775,77.451z"/>
	<path d="M73.694,31.393c-8.268-5.08-18.671-5.302-27.153-0.587c-0.933,0.519-1.263,1.688-0.749,2.623
		c0.515,0.923,1.685,1.26,2.621,0.743c7.264-4.042,16.182-3.85,23.266,0.502c0.312,0.19,0.661,0.284,1.004,0.284
		c0.646,0,1.278-0.327,1.643-0.916C74.883,33.133,74.601,31.947,73.694,31.393z"/>
	<path d="M68.668,41.512c0.646,0,1.282-0.324,1.643-0.916c0.557-0.906,0.271-2.091-0.635-2.647
		c-5.907-3.619-13.341-3.786-19.397-0.416c-0.929,0.513-1.263,1.686-0.749,2.615c0.519,0.929,1.692,1.264,2.617,0.75
		c4.847-2.694,10.787-2.564,15.518,0.333C67.979,41.424,68.325,41.512,68.668,41.512z"/>
	<path d="M54.034,44.289c-0.929,0.515-1.263,1.688-0.748,2.621c0.515,0.931,1.692,1.26,2.617,0.749
		c2.421-1.346,5.384-1.29,7.729,0.15c0.316,0.191,0.662,0.28,1.004,0.28c0.647,0,1.282-0.323,1.644-0.919
		c0.557-0.902,0.271-2.089-0.636-2.647C62.118,42.36,57.666,42.27,54.034,44.289z"/>
</g>
</svg>
